<svg class="svg-icon" style="width: 1em; height: 1em;vertical-align: middle;fill: currentColor;overflow: hidden;" viewBox="0 0 1024 1024" version="1.1" xmlns="http://www.w3.org/2000/svg"><path d="M687.786667 256c53.486933 1.706667 80.213333 30.1568 80.213333 85.333333v85.333334H85.333333v-85.333334c0-56.8832 28.450133-85.333333 85.333334-85.333333h517.12z m-230.4 56.32c-7.953067-7.953067-17.92-11.946667-29.866667-11.946667s-22.186667 3.976533-30.72 11.946667c-7.970133 8.533333-11.946667 18.773333-11.946667 30.72s3.976533 21.896533 11.946667 29.866667c8.533333 8.533333 18.773333 12.8 30.72 12.8s21.9136-4.266667 29.866667-12.8c8.533333-7.970133 12.8-17.92 12.8-29.866667s-4.266667-22.186667-12.8-30.72z m-188.586667 0c-7.970133 8.533333-11.946667 18.773333-11.946667 30.72s3.976533 21.896533 11.946667 29.866667c8.533333 8.533333 18.773333 12.8 30.72 12.8s21.9136-4.266667 29.866667-12.8c8.533333-7.970133 12.8-17.92 12.8-29.866667s-4.266667-22.186667-12.8-30.72c-7.953067-7.953067-17.92-11.946667-29.866667-11.946667s-22.186667 3.976533-30.72 11.946667z m-67.413333 0.853333c-7.953067-7.970133-17.92-11.946667-29.866667-11.946666s-22.186667 3.976533-30.72 11.946666c-7.970133 8.533333-11.946667 18.773333-11.946667 30.72s3.976533 21.9136 11.946667 29.866667c8.533333 8.533333 18.773333 12.8 30.72 12.8s21.9136-4.266667 29.866667-12.8c8.533333-7.953067 12.8-17.92 12.8-29.866667s-4.266667-22.186667-12.8-30.72z"  /><path d="M682.666667 955.733333H170.666667c-66.030933 0-102.4-36.369067-102.4-102.4V341.333333c0-66.030933 36.369067-102.4 102.4-102.4h68.266666v-68.266666c0-66.030933 36.369067-102.4 102.4-102.4h512c66.030933 0 102.4 36.369067 102.4 102.4v512c0 66.030933-36.369067 102.4-102.4 102.4h-68.266666v68.266666c0 66.030933-36.369067 102.4-102.4 102.4zM102.4 443.733333v409.6c0 47.223467 21.0432 68.266667 68.266667 68.266667h512c47.223467 0 68.266667-21.0432 68.266666-68.266667V443.733333H102.4z m682.666667 307.2h68.266666c47.223467 0 68.266667-21.0432 68.266667-68.266666V273.066667h-156.228267c12.936533 16.930133 19.694933 39.867733 19.694934 68.266666v409.6zM102.4 409.6h648.533333v-68.266667c0-45.7216-19.5584-66.781867-63.4368-68.266666H170.666667c-47.223467 0-68.266667 21.0432-68.266667 68.266666v68.266667z m585.454933-170.666667H921.6v-68.266666c0-47.223467-21.0432-68.266667-68.266667-68.266667H341.333333c-47.223467 0-68.266667 21.0432-68.266666 68.266667v68.266666H687.854933z"  /></svg>